<svg xmlns="http://www.w3.org/2000/svg" viewBox="0 0 87.82 88"><defs><style>.cls-1{fill:#c5c3c0;}</style></defs><title>Steam ico</title><g id="Layer_2" data-name="Layer 2"><g id="Layer_2-2" data-name="Layer 2"><path class="cls-1" d="M30.32,67.25A6.72,6.72,0,0,1,26.45,66l-5.59-2.29A10,10,0,1,0,30.32,50.5a9.87,9.87,0,0,0-4.38,1L31.1,53.8a6.75,6.75,0,0,1-.78,13.45Z"/><path class="cls-1" d="M43.82,0A44,44,0,0,0,0,40.06L23.68,50.52a11.87,11.87,0,0,1,6.42-2L42.34,33c0-.17,0-.33,0-.5A16,16,0,1,1,59.55,48.44L42.32,60.5a12,12,0,0,1-23.78,2.28l-17.12-7A44,44,0,1,0,43.82,0Z"/><path class="cls-1" d="M70.32,32.5a12,12,0,1,0-12,12A12,12,0,0,0,70.32,32.5Zm-19.5,0a7.5,7.5,0,1,1,7.5,7.5A7.5,7.5,0,0,1,50.82,32.5Z"/></g></g></svg>